<?xml version="1.0" encoding="UTF-8" standalone="no"?>
<svg
   width="24"
   height="24"
   version="1.1"
   id="svg4"
   sodipodi:docname="shell-notify.svg"
   xml:space="preserve"
   inkscape:version="1.4.2 (ebf0e94, 2025-05-08)"
   xmlns:inkscape="http://www.inkscape.org/namespaces/inkscape"
   xmlns:sodipodi="http://sodipodi.sourceforge.net/DTD/sodipodi-0.dtd"
   xmlns="http://www.w3.org/2000/svg"
   xmlns:svg="http://www.w3.org/2000/svg"><defs
     id="defs4"><style
       id="current-color-scheme"
       type="text/css">
   .ColorScheme-Text { color:#dfdfdf; } .ColorScheme-Highlight { color:#4285f4; } .ColorScheme-NeutralText { color:#ff9800; } .ColorScheme-PositiveText { color:#4caf50; } .ColorScheme-NegativeText { color:#f44336; }
  </style></defs><sodipodi:namedview
     id="namedview4"
     pagecolor="#ffffff"
     bordercolor="#000000"
     borderopacity="0.25"
     inkscape:showpageshadow="2"
     inkscape:pageopacity="0.0"
     inkscape:pagecheckerboard="0"
     inkscape:deskcolor="#d1d1d1"
     showgrid="false"
     inkscape:zoom="22.125"
     inkscape:cx="12"
     inkscape:cy="11.909605"
     inkscape:window-width="1366"
     inkscape:window-height="740"
     inkscape:window-x="0"
     inkscape:window-y="0"
     inkscape:window-maximized="1"
     inkscape:current-layer="layer2" /><g
     inkscape:groupmode="layer"
     id="layer2"
     inkscape:label="Script"
     transform="translate(-2.1694915,-2.2146893)"><path
       id="rect4"
       d="m 7.7740109,5.1525421 h 7.4124301 c 1.302057,0 2.350283,1.048226 2.350283,2.3502824 v 4.6553675 c 0,1.302056 -1.048226,2.350282 -2.350283,2.350282 H 7.7740109 c -1.3020565,0 -2.3502824,-1.048226 -2.3502824,-2.350282 V 7.5028245 c 0,-1.3020564 1.0482259,-2.3502824 2.3502824,-2.3502824 z" /><path
       style="fill:currentColor"
       class="ColorScheme-Text"
       d="m 6,3.8700566 c -1.108,0 -2,0.892 -2,2 v 9.9999994 c 0,1.108 0.892,2 2,2 h 12 c 1.108,0 2,-0.892 2,-2 V 5.8700566 c 0,-1.108 -0.892,-2 -2,-2 z m 2,2 h 1.0000003 v 1 h 0.5 c 0.6539997,0 1.2021997,0.418 1.4081997,1 H 9.0000003 v 1 h 0.5 C 10.331,8.8700566 11,9.5390566 11,10.370057 c 0,0.831 -0.669,1.5 -1.4999997,1.5 h -0.5 v 0.999999 H 8 V 11.870057 H 7.5 c -0.6542,0 -1.2022,-0.418 -1.4082,-1 H 8 V 9.8700564 H 7.5 c -0.831,0 -1.5,-0.6689998 -1.5,-1.4999998 0,-0.831 0.669,-1.5 1.5,-1.5 H 8 Z m -0.5,2 c -0.277,0 -0.5,0.223 -0.5,0.5 0,0.277 0.223,0.5 0.5,0.5 H 8 v -1 z m 1.5000003,1.9999998 v 1.0000006 h 0.5 C 9.7767003,10.882957 10,10.647057 10,10.370057 10,10.093057 9.7770003,9.8700564 9.5000003,9.8700564 Z M 12,11.870057 h 4 v 0.999999 h -4 z"
       id="path1" /></g><g
     inkscape:groupmode="layer"
     id="layer1"
     inkscape:label="Bell"
     transform="matrix(0.64062292,0,0,0.64062292,8.8069449,7.4080183)"
     style="display:inline"><path
       id="circle1"
       style="opacity:0.2"
       d="M 16,19 A 3.5,3.5 0 0 1 12.5,22.5 3.5,3.5 0 0 1 9,19 3.5,3.5 0 0 1 12.5,15.5 3.5,3.5 0 0 1 16,19 Z" /><path
       id="circle2"
       style="fill:#fb8c00"
       d="M 16,18.5 A 3.5,3.5 0 0 1 12.5,22 3.5,3.5 0 0 1 9,18.5 3.5,3.5 0 0 1 12.5,15 3.5,3.5 0 0 1 16,18.5 Z" /><path
       style="opacity:0.2"
       d="m 12.500001,2.5 c -0.826521,0 -1.496548,0.6715729 -1.496548,1.5 3.19e-4,0.00228 6.5e-4,0.00456 9.49e-4,0.00684 C 8.054368,4.6874002 6,7.323891 6,10.5 v 4.525695 c 0,0 -0.056844,1.190637 -0.8892052,1.753906 l -1.8502242,1.595703 c -0.4072703,0.362853 -0.3273699,1.125 0.1714794,1.125 H 5.8483515 12.5 19.151649 21.56795 c 0.498849,0 0.57875,-0.762147 0.171479,-1.125 L 19.889205,16.779601 C 19.056844,16.216332 19,15.025695 19,15.025695 V 10.5 c 0,-3.176109 -2.054368,-5.8125998 -5.004426,-6.4931641 3.49e-4,-0.00227 6.5e-4,-0.00455 9.5e-4,-0.00684 0,-0.8284271 -0.670027,-1.5 -1.496548,-1.5 z"
       id="path2" /><path
       style="fill:#ffc107"
       d="m 12.500001,2 c -0.826521,0 -1.496548,0.6715729 -1.496548,1.5 3.19e-4,0.00228 6.5e-4,0.00456 9.49e-4,0.00684 C 8.054368,4.1874002 6,6.823891 6,10 v 4.525695 c 0,0 -0.056844,1.190637 -0.8892052,1.753906 l -1.8502242,1.595703 c -0.4072703,0.362853 -0.3273699,1.125 0.1714794,1.125 H 5.8483515 12.5 19.151649 21.56795 c 0.498849,0 0.57875,-0.762147 0.171479,-1.125 L 19.889205,16.279601 C 19.056844,15.716333 19,14.525696 19,14.525696 V 10 c 0,-3.176109 -2.054368,-5.8125998 -5.004426,-6.493164 3.49e-4,-0.00228 6.5e-4,-0.00455 9.5e-4,-0.00684 0,-0.8284271 -0.670027,-1.5 -1.496548,-1.5 z"
       id="path3" /><path
       style="opacity:0.2;fill:#ffffff"
       d="m 12.5,2 c -0.826521,0 -1.496094,0.6715729 -1.496094,1.5 3.2e-4,0.00228 7e-4,0.00456 10e-4,0.00684 C 8.0548485,4.1874001 6,6.823891 6,10 v 0.5 c 0,-3.176109 2.0548485,-5.8125999 5.004883,-6.4931641 -3e-4,-0.00228 -6.57e-4,-0.00456 -9.77e-4,-0.00684 0,-0.8284271 0.669573,-1.5 1.496094,-1.5 0.826521,0 1.496094,0.6715729 1.496094,1.5 -3e-4,0.00228 -6.5e-4,0.00456 -10e-4,0.00684 C 16.945176,4.6874002 19,7.323891 19,10.5 V 10 C 19,6.823891 16.945176,4.1874002 13.995117,3.506836 13.995466,3.504561 13.995794,3.502281 13.996094,3.5 13.996094,2.6715729 13.326521,2 12.5,2 Z M 6,14.525227 c 0,0 -0.057287,1.190637 -0.8896485,1.753906 L 3.2607422,17.874836 C 3.0149067,18.09386 2.9488029,18.456217 3.0429688,18.710773 3.0846248,18.585769 3.1570331,18.467235 3.2607422,18.374836 L 5.1103515,16.779133 C 5.9427135,16.215864 6,15.025227 6,15.025227 Z m 13,0 v 0.5 c 0,0 0.05729,1.190637 0.889648,1.753906 l 1.84961,1.595703 c 0.103709,0.0924 0.176117,0.210933 0.217773,0.335937 0.09417,-0.254556 0.02806,-0.616913 -0.217773,-0.835937 l -1.84961,-1.595703 C 19.057287,15.715864 19,14.525227 19,14.525227 Z"
       id="path4" /></g></svg>
